<svg width="34" height="33" viewBox="0 0 34 33" fill="none" xmlns="http://www.w3.org/2000/svg">
<path d="M17.4888 8.0711C19.3546 8.18006 21.1319 8.89559 22.548 10.108C23.9641 11.3204 24.9409 12.9627 25.3287 14.7832C25.7165 16.6037 25.4938 18.5018 24.6949 20.1866C23.8959 21.8714 22.5648 23.2498 20.9055 24.1105C19.2462 24.9712 17.3504 25.2667 15.5087 24.9517C13.6671 24.6367 11.9812 23.7286 10.7096 22.3666C9.43797 21.0045 8.65082 19.2638 8.46882 17.4112C8.28681 15.5587 8.72 13.6965 9.70196 12.1104L11.3556 13.1238C10.597 14.3492 10.2624 15.7877 10.403 17.2188C10.5436 18.65 11.1517 19.9947 12.134 21.0469C13.1163 22.0991 14.4187 22.8007 15.8415 23.044C17.2642 23.2874 18.7287 23.0591 20.0106 22.3942C21.2924 21.7292 22.3207 20.6644 22.938 19.3629C23.5552 18.0613 23.7272 16.595 23.4276 15.1886C23.128 13.7823 22.3734 12.5135 21.2794 11.5769C20.1854 10.6403 18.8125 10.0876 17.3711 10.0034L17.4888 8.0711Z" stroke="#C678C3" stroke-width="3" stroke-linejoin="bevel"/>
<path d="M17.9396 13.4192L15.2356 8.3985L20.2821 5.69512" stroke="#C678C3" stroke-width="4" stroke-linecap="round"/>
</svg>
