<svg width="58" height="57" viewBox="0 0 58 57" fill="none" xmlns="http://www.w3.org/2000/svg">
<ellipse cx="29.0757" cy="28.5" rx="28.6287" ry="28.5" fill="#D9D9D9"/>
<path d="M50.7531 28.5C50.7531 40.3716 41.0774 50.0488 29.0757 50.0488C17.074 50.0488 7.39824 40.3716 7.39824 28.5C7.39824 16.6284 17.074 6.95122 29.0757 6.95122C41.0774 6.95122 50.7531 16.6284 50.7531 28.5Z" fill="#D9D9D9" stroke="black" stroke-width="13.9024"/>
<path d="M9.52441 20.3297L9.91724 36.2133L16.8603 34.5295L16.5461 21.8226L9.52441 20.3297Z" fill="#D9D9D9"/>
<path d="M25.6738 7.64633L12.3173 16.3438L17.4117 21.3327L28.0969 14.3747L25.6738 7.64633Z" fill="#D9D9D9"/>
<path d="M26.3721 48.5757L13.0155 39.8782L18.1099 34.8893L28.7951 41.8473L26.3721 48.5757Z" fill="#D9D9D9"/>
<path d="M32.1998 7.64633L45.5564 16.3438L40.462 21.3327L29.7767 14.3747L32.1998 7.64633Z" fill="#D9D9D9"/>
<path d="M49.0176 20.3297L48.6248 36.2133L41.6817 34.5295L41.9959 21.8226L49.0176 20.3297Z" fill="#D9D9D9"/>
<path d="M31.5016 48.5757L44.8582 39.8782L39.7638 34.8893L29.0785 41.8473L31.5016 48.5757Z" fill="#D9D9D9"/>
</svg>
